<svg width="100" height="105" viewBox="0 0 100 105" fill="none" xmlns="http://www.w3.org/2000/svg">
<g id="doctor.svg" clip-path="url(#clip0_1_3140)">
<path id="Vector" d="M50 97.5015C74.3005 97.5015 94 77.8021 94 53.5015C94 29.201 74.3005 9.50153 50 9.50153C25.6995 9.50153 6 29.201 6 53.5015C6 77.8021 25.6995 97.5015 50 97.5015Z" fill="#E0F7F4"/>
<g id="Clip path group">
<mask id="mask0_1_3140" style="mask-type:luminance" maskUnits="userSpaceOnUse" x="7" y="0" width="87" height="98">
<g id="a">
<path id="Vector_2" d="M93.0347 0.712463H7V97.5016H93.0347V0.712463Z" fill="white"/>
</g>
</mask>
<g mask="url(#mask0_1_3140)">
<g id="Group">
<path id="Vector_3" d="M42.6855 5.30739C42.6855 5.30739 46.4006 1.69002 51.7778 0.907886C57.155 0.125752 69.1803 2.27662 70.158 16.0617C71.0379 29.749 67.5183 30.7267 67.5183 30.7267C67.5183 30.7267 73.482 34.1485 72.6021 39.819C71.9178 44.3163 69.3758 48.3247 58.3282 47.8359C47.2805 47.3471 42.6855 5.30739 42.6855 5.30739Z" fill="#1B2734"/>
<path id="Vector_4" d="M65.0737 54.0936C62.5317 52.4315 61.163 51.7472 59.5987 47.7387C57.7411 42.9482 59.2076 33.8559 59.2076 32.2916C65.8558 19.0931 59.9898 15.5735 54.5148 10.4896C48.9421 5.40577 42.4895 7.26334 42.4895 7.26334C38.3833 7.3611 36.0369 11.3695 36.0369 11.3695C36.0369 11.3695 32.9084 17.5288 33.2995 28.5765C33.5928 39.6241 35.2548 41.9705 36.428 43.6325C37.6012 45.2946 40.3387 45.5879 42.7828 45.5879C42.7828 48.7164 41.7074 51.6494 39.5565 53.0181C37.5034 54.3869 31.833 57.1244 31.833 57.1244C31.833 57.1244 40.632 68.6608 55.1992 65.3368C67.029 62.5993 71.233 56.7333 71.233 56.7333C71.233 56.7333 67.7134 55.6578 65.0737 54.0936Z" fill="#F4C0AA"/>
<path id="Vector_5" d="M36.3301 21.2435C35.1569 21.2435 35.1569 23.5899 36.3301 23.5899C37.5033 23.5899 37.5033 21.2435 36.3301 21.2435Z" fill="#1B2734"/>
<path id="Vector_6" d="M46.2046 21.2435C45.0314 21.2435 45.0314 23.5899 46.2046 23.5899C47.3778 23.5899 47.3778 21.2435 46.2046 21.2435Z" fill="#1B2734"/>
<path id="Vector_7" d="M64.6825 12.64C63.8026 8.63164 54.6126 4.9165 49.3332 3.93883C46.5957 2.5701 44.6404 2.96117 42.7828 3.7433C40.6319 4.6232 39.2632 4.81873 35.9391 8.53387C32.7128 12.249 33.6905 19.8748 33.6905 19.8748C33.6905 19.8748 35.2548 15.2797 37.2101 12.7378C38.09 11.5646 40.0453 10.0004 41.8051 8.63164C42.4895 10.0004 45.3247 15.2797 50.4086 18.6038C56.2746 22.4167 62.1406 23.5899 62.1406 23.5899C62.1406 23.5899 65.758 17.6261 64.6825 12.64Z" fill="#1B2734"/>
<path id="Vector_8" d="M57.937 23.5908C57.937 23.5908 58.7192 21.44 60.7723 20.8534C62.8254 20.2668 65.4651 23.102 63.9986 26.7194C62.5321 30.3367 61.3589 32.3898 58.3281 31.7055C55.2973 31.0211 57.937 23.5908 57.937 23.5908Z" fill="#F4C0AA"/>
<path id="Vector_9" d="M44.5425 36.812C44.5425 36.812 42.4894 37.1053 40.6318 37.0075C38.6765 36.9098 37.21 36.812 37.21 36.812C37.21 36.812 38.9698 39.3539 41.2184 39.3539C42.5871 39.3539 44.1514 38.474 44.5425 36.812Z" fill="white"/>
<path id="Vector_10" d="M43.7607 20.2653C43.7607 19.972 44.5429 19.5809 45.6183 19.3854C46.7915 19.2876 47.6714 19.7764 47.8669 20.0697C47.9647 20.4608 46.7915 20.0697 46.2049 20.0697C45.7161 20.1675 43.7607 20.5586 43.7607 20.2653Z" fill="#1B2734"/>
<path id="Vector_11" d="M37.9924 20.0713C37.9924 20.0713 36.7215 19.1914 35.5483 19.3869C34.2773 19.5825 33.8862 20.1691 33.8862 20.1691C33.8862 20.1691 34.5706 20.4624 35.7438 20.3646C36.917 20.2668 38.188 20.6579 37.9924 20.0713Z" fill="#1B2734"/>
<path id="Vector_12" d="M37.7046 20.0709C38.7097 20.8972 40.4585 23.5348 39.413 27.4744C38.1061 32.3989 36.5995 32.3989 37.7046 33.5714C38.5886 34.5094 40.4399 34.2526 41.2551 34.0069" stroke="#C37833" stroke-width="0.770444"/>
<path id="Vector_13" d="M54.6882 34.8116C53.9737 38.1616 50.6018 45.0157 42.8296 45.6322" stroke="#C37833" stroke-width="0.770444"/>
<path id="Vector_14" d="M51.8751 23.688C51.7773 22.026 50.7019 20.1684 46.4001 20.2662C44.5426 20.3639 43.2716 20.8528 42.4895 21.8304C42.2939 22.1237 42.0984 22.417 42.0006 22.7103C41.2185 22.3193 39.8498 21.9282 38.2855 22.6126C37.6011 21.1461 36.1346 20.2662 34.0815 20.2662C31.1485 20.2662 29.291 21.9282 29.291 24.3724C29.291 27.0121 31.4418 30.2384 34.0815 30.2384C36.7212 30.2384 38.7743 27.9897 38.7743 25.2523C38.7743 24.4701 38.6766 23.8835 38.481 23.2969C39.8498 22.6126 41.1207 23.0036 41.7073 23.3947C41.6096 24.0791 41.6096 24.8612 41.7073 25.7411C42.1962 28.4786 44.1515 30.3361 46.5957 30.3361C46.6934 30.3361 46.889 30.3361 46.9868 30.3361C49.822 30.1406 52.0706 26.4255 51.8751 23.688ZM34.0815 29.6518C31.9307 29.6518 29.9753 26.8165 29.9753 24.4701C29.9753 21.9282 32.1262 21.0483 34.0815 21.0483C36.1346 21.0483 37.1123 21.9282 37.6011 23.0036L37.6989 23.1014C37.9922 23.7858 38.09 24.5679 38.09 25.2523C38.09 27.6964 36.3302 29.6518 34.0815 29.6518ZM46.9868 29.6518C44.8359 29.8473 42.8805 28.1853 42.4895 25.7411C42.1962 24.2746 42.3917 23.1992 43.0761 22.417C43.7604 21.6349 44.8359 21.2438 46.4001 21.1461C46.5957 21.1461 46.6934 21.1461 46.889 21.1461C49.6264 21.1461 50.9952 22.026 51.093 23.8835C51.2885 26.0344 49.3332 29.4562 46.9868 29.6518Z" fill="white"/>
<path id="Vector_15" d="M51.4922 23.862L58.2577 21.4552" stroke="white" stroke-width="1.28407"/>
<path id="Vector_16" d="M47.5723 63.7228C42.9773 62.8756 38.9688 58.9221 38.9688 58.9221L38.0889 99.8693C41.8041 101.423 45.7147 102.27 49.7232 102.27C50.7986 102.27 51.9718 102.129 53.0472 102.129L56.3713 61.7461C56.4691 61.7461 52.1673 64.57 47.5723 63.7228Z" fill="#005E51"/>
<path id="Vector_17" d="M60.9024 49.9386C61.6272 50.112 63.0714 50.5793 64.9439 51.2647C67.0962 52.0525 69.7758 53.114 72.4896 54.3041C75.2043 55.4946 77.9469 56.8112 80.228 58.1089C82.5122 59.4085 84.2819 60.6611 85.1222 61.7221C85.4215 62.2211 85.7249 63.0935 86.022 64.2888C86.3201 65.4879 86.6032 66.9745 86.8716 68.6572C87.4083 72.022 87.8825 76.1469 88.3009 80.2757C88.6091 83.3172 88.8866 86.3563 89.1363 89.0917C89.2256 90.0693 89.3113 91.0082 89.3936 91.8945C89.6919 95.1065 89.9474 97.6534 90.1665 98.8297C88.3663 101.901 86.2219 103.484 83.7944 104.163C81.3139 104.857 78.4916 104.622 75.3499 103.972C73.4484 103.577 71.4668 103.041 69.3917 102.48C68.0235 102.109 66.6146 101.729 65.1612 101.371C61.5275 100.474 57.6705 99.735 53.6653 99.735H53.6467H53.6281H53.6095H53.5908H53.5722H53.5536H53.535H53.5164H53.4978H53.4792H53.4605H53.4419H53.4233H53.4047H53.3861H53.3675H53.3489H53.3303H53.3117H53.2931H53.2745H53.2559H53.2373H53.2188H53.2002H53.1816H53.163H53.1444H53.1259H53.1073H53.0887H53.0702H53.0516H53.0331H53.0145H52.996H52.9774H52.9589H52.9404H52.9218H52.9033H52.8848H52.8663H52.8478H52.8293H52.8108H52.7923H52.7738H52.7553H52.7368H52.7184H52.6999H52.6815H52.663H52.6446H52.6261H52.6077H52.5893H52.5708H52.5524H52.534H52.5156H52.4972H52.4789H52.4605H52.4421H52.4237H52.4054H52.387H52.3687H52.3504H52.3321H52.3137H52.2954H52.2771H52.2589H52.2406H52.2223H52.204H52.1858H52.1676H52.1493H52.1311H52.1129H52.0947H52.0765H52.0583H52.0401H52.022H52.0038H51.9857H51.9675H51.9494H51.9313H51.9132H51.8951H51.877H51.859H51.8409H51.8229H51.8048H51.7868H51.7688H51.7508H51.7328H51.7148H51.6969H51.6789H51.661H51.6431H51.6252H51.6073H51.5894H51.5715H51.5537H51.5358H51.518H51.5002H51.4824H51.4646H51.4468H51.429H51.4113H51.3935H51.3758H51.3581H51.3404H51.3228H51.3051H51.2874H51.2698H51.2522H51.2346H51.217H51.1994H51.1819H51.1644H51.1468H51.1293H51.1118H51.0944H51.0769H51.0595H51.042H51.0246H51.0072H50.9899H50.9725H50.9552H50.9378H50.9205H50.9032H50.886H50.8687H50.8515H50.8343H50.8171H50.7999H50.7827H50.7656H50.7485H50.7314H50.7143H50.6972H50.6801H50.6631H50.6461H50.6291H50.6121H50.5952H50.5782H50.5613H50.5444H50.5276H50.5107H50.4939H50.4771H50.4603H50.4435H50.4267H50.41H50.3933H50.3766H50.36H50.3433H50.3267H50.3101H50.2935H50.2769H50.2604H50.2439H50.2274H50.2109H50.1945H50.178H50.1616H50.1453H50.1289H50.1126H50.0963H50.08H50.0637H50.0475H50.0312H50.015H49.9989H49.9827H49.9666H49.9505H49.9344H49.9184H49.9023H49.8863H49.8704H49.8544H49.8385H49.8226H49.8067H49.7908H49.775H49.7592H49.7434H49.7277H49.712H49.6963H49.6806H49.665H49.6493H49.6337H49.6182H49.6026H49.5871H49.5716H49.5562H49.5407H49.5253H49.51H49.4946H49.4793H49.464H49.4487H49.4335H49.4183H49.4031H49.3879H49.3728H49.3577H49.3426H49.3276H49.3126H49.2976H49.2826H49.2677H49.2528H49.2379H49.2231H49.2083H49.1935H49.1788H49.1641H49.1494H49.1347H49.1201H49.1055H49.0909H49.0764H49.0619H49.0474H49.033H49.0186H49.0042H48.9898H48.9755H48.9612H48.947H48.9328H48.9186H48.9044H48.8903H48.8762H48.8621H48.8481H48.8341H48.8201H48.8062H48.7923H48.7784H48.7646H48.7508H48.7371H48.7233H48.7096H48.696H48.6823H48.6687H48.6552H48.6417H48.6282H48.6147H48.6013H48.5879H48.5745H48.5612H48.5479H48.5347H48.5215H48.5083H48.4952H48.4821H48.469H48.456H48.443H48.43H48.4171H48.4042H48.3913H48.3785H48.3657H48.353H48.3403H48.3276H48.315H48.3024H48.2898H48.2773H48.2648H48.2524H48.24H48.2276H48.2153H48.203H48.1907H48.1785H48.1663H48.1542H48.1421H48.13H48.118H48.106H48.0941H48.0822H48.0703H48.0585H48.0467H48.035H48.0233H48.0116H48H47.9884H47.9769H47.9654H47.9539H47.9425H47.9311H47.9197H47.9084H47.8972H47.886H47.8748H47.8637H47.8526H47.8415H47.8305H47.8196H47.8086H47.7977H47.7869H47.7761H47.7654H47.7546H47.744H47.7334H47.7228H47.7122H47.7017H47.6913H47.6809H47.6705H47.6602H47.6499H47.6397H47.6295H47.6193H47.6092H47.5992H47.5892H47.5792H47.5693H47.5594H47.5496H47.5398H47.5301H47.5204H47.5107H47.5011H47.4915H47.482H47.4726H47.4631H47.4538H47.4444H47.4352H47.4259H47.4167H47.4076H47.3985H47.3894H47.3804H47.3715H47.3626H47.3537H47.3449H47.3361H47.3274H47.3188H47.3101H47.3016H47.293H47.2846H47.2761H47.2678H47.2594H47.2512H47.2429H47.2347H47.2266H47.2185H47.2105H47.2025H47.1946H47.1867H47.1797C48.0144 94.8406 51.3319 76.754 53.0274 70.8194L53.0285 70.8157C54.0976 66.9279 56.0945 61.6417 57.8296 57.3163C58.6961 55.156 59.4956 53.2397 60.0785 51.8635C60.3699 51.1754 60.6071 50.6224 60.7714 50.2416C60.8222 50.1237 60.8661 50.0224 60.9024 49.9386Z" fill="white" stroke="#005E51" stroke-width="0.770444"/>
<g id="Vector_18">
<path d="M40.4344 50.664C40.6393 50.5869 40.8204 50.5192 40.9737 50.4622C40.9471 50.752 40.9118 51.1385 40.8697 51.6072C40.7703 52.7123 40.6327 54.2744 40.4799 56.1023C40.1743 59.7574 39.8074 64.4779 39.5627 68.7353C39.1823 74.7297 39.0792 93.7998 39.0734 99.5584C36.647 99.0366 34.2575 99.199 31.9647 99.626C30.2589 99.9437 28.582 100.414 26.9834 100.863C26.3043 101.053 25.6394 101.24 24.9924 101.409C22.797 101.982 20.7973 102.361 19.0039 102.113C17.2645 101.872 15.6931 101.038 14.3247 99.1308C13.8155 91.4475 14.2275 83.5716 14.9862 77.1843C15.3673 73.9761 15.8354 71.1477 16.3167 68.9116C16.8008 66.6626 17.2912 65.0478 17.7057 64.2419C18.1138 63.4484 18.8734 62.5814 19.8773 61.686C20.8764 60.795 22.0945 59.8958 23.3932 59.034C25.9905 57.3106 28.8838 55.7542 30.9294 54.7314L30.9362 54.7279C32.8728 53.7112 35.5212 52.593 37.6947 51.7261C38.7795 51.2934 39.7426 50.9246 40.4344 50.664Z" fill="white"/>
<path d="M17.7057 64.2419C17.2912 65.0478 16.8008 66.6626 16.3167 68.9116C15.8354 71.1477 15.3673 73.9761 14.9862 77.1843C14.2275 83.5716 13.8155 91.4475 14.3247 99.1308C15.6931 101.038 17.2645 101.872 19.0039 102.113C20.7973 102.361 22.797 101.982 24.9924 101.409C25.6394 101.24 26.3043 101.053 26.9834 100.863C28.582 100.414 30.2589 99.9437 31.9647 99.626C34.2575 99.199 36.647 99.0366 39.0734 99.5584C39.0792 93.7998 39.1823 74.7297 39.5627 68.7353C39.8074 64.4779 40.1743 59.7574 40.4799 56.1023C40.6327 54.2744 40.7703 52.7123 40.8697 51.6072C40.9118 51.1385 40.9471 50.752 40.9737 50.4622C40.8204 50.5192 40.6393 50.5869 40.4344 50.664C39.7426 50.9246 38.7795 51.2934 37.6947 51.7261C35.5212 52.593 32.8728 53.7112 30.9362 54.7279L30.9294 54.7314C28.8838 55.7542 25.9905 57.3106 23.3932 59.034C22.0945 59.8958 20.8764 60.795 19.8773 61.686C18.8734 62.5814 18.1138 63.4484 17.7057 64.2419ZM17.7057 64.2419L17.3631 64.0657" stroke="#005E51" stroke-width="0.770444"/>
</g>
<path id="Vector_19" d="M67.909 83.0319C67.0291 82.8364 65.8559 81.9565 64.6827 81.0766C62.6296 81.8587 60.4787 82.0542 60.3809 82.0542L60.2832 80.9788C60.2832 80.9788 62.043 80.881 63.8028 80.2944C62.7273 79.219 61.9452 78.1436 61.7497 77.3614C61.5541 75.8949 61.6519 62.892 63.9005 60.0567C65.7581 57.6126 67.7134 57.7103 68.7889 58.0036C70.6464 58.5902 71.9174 60.4478 72.0152 61.8165C72.1129 63.8696 69.7665 76.1882 67.8112 78.9257C67.3224 79.6101 66.638 80.1967 65.7581 80.5877C66.638 81.2721 67.5179 81.8587 68.1045 82.0542L67.909 83.0319ZM67.7134 58.8835C66.7358 58.8835 65.7581 59.4701 64.8782 60.6433C63.0206 62.9897 62.7273 75.5039 62.9229 77.1659C63.0206 77.6547 63.9005 78.7302 64.976 79.8056C65.7581 79.4145 66.5402 78.9257 67.0291 78.2413C68.6911 75.7972 71.1353 63.9674 71.0375 61.8165C71.0375 60.9366 70.0598 59.4701 68.5933 59.0791C68.2023 58.9813 68.0067 58.8835 67.7134 58.8835Z" fill="#1B2734"/>
<path id="Vector_20" d="M70.2547 83.7162C70.0591 84.2051 69.4725 84.4006 68.9837 84.2051L68.1038 83.814C67.615 83.6185 67.4194 83.0319 67.615 82.543C67.8105 82.0542 68.3971 81.8587 68.8859 82.0542L69.7658 82.4453C70.2547 82.6408 70.4502 83.2274 70.2547 83.7162Z" fill="#FFD968"/>
<path id="Vector_21" d="M60.9676 81.4688C60.9676 81.9577 60.5765 82.4465 60.0877 82.5443L59.2078 82.642C58.7189 82.642 58.2301 82.251 58.1323 81.7621C58.1323 81.2733 58.5234 80.7845 59.0122 80.6867L59.8921 80.5889C60.4787 80.5889 60.9676 80.98 60.9676 81.4688Z" fill="#FFD968"/>
<path id="Vector_22" d="M59.5005 47.3474C59.5005 47.4452 59.5983 47.6407 59.5983 47.7385C59.696 48.0318 59.8916 48.4228 59.9893 48.7161C62.0424 49.4983 65.9531 51.8447 67.6151 58.8839L68.6906 58.5906C66.6375 49.8894 61.3581 47.8363 59.5005 47.3474Z" fill="#1B2734"/>
<path id="Vector_23" d="M42.3919 48.6184C40.5343 49.1073 36.8192 50.7693 34.7661 55.5599C32.0286 61.817 31.3442 66.2165 31.3442 66.412L32.4197 66.6075C32.4197 66.6075 33.104 62.208 35.7437 56.0487C37.4058 52.2358 40.1432 50.5738 41.903 49.9872C42.0986 49.4983 42.1963 49.1073 42.3919 48.6184Z" fill="#1B2734"/>
<path id="Vector_24" d="M31.5391 73.6456C34.1849 73.6456 36.3297 71.5008 36.3297 68.8551C36.3297 66.2093 34.1849 64.0645 31.5391 64.0645C28.8933 64.0645 26.7485 66.2093 26.7485 68.8551C26.7485 71.5008 28.8933 73.6456 31.5391 73.6456Z" fill="#DCDFE3"/>
<path id="Vector_25" d="M31.5399 71.3975C32.9438 71.3975 34.0819 70.2594 34.0819 68.8555C34.0819 67.4517 32.9438 66.3136 31.5399 66.3136C30.1361 66.3136 28.998 67.4517 28.998 68.8555C28.998 70.2594 30.1361 71.3975 31.5399 71.3975Z" fill="white"/>
</g>
</g>
</g>
</g>
<defs>
<clipPath id="clip0_1_3140">
<rect width="100" height="104" fill="white" transform="translate(0 0.501526)"/>
</clipPath>
</defs>
</svg>
