<svg width="108" height="105" viewBox="0 0 108 105" fill="none" xmlns="http://www.w3.org/2000/svg">
<g id="facility.svg">
<path id="Vector" d="M54.8335 97.504C79.134 97.504 98.8335 77.8046 98.8335 53.504C98.8335 29.2035 79.134 9.50403 54.8335 9.50403C30.533 9.50403 10.8335 29.2035 10.8335 53.504C10.8335 77.8046 30.533 97.504 54.8335 97.504Z" fill="#E0F7F4"/>
<path id="Vector_2" fill-rule="evenodd" clip-rule="evenodd" d="M88.1807 32.8795H20.6904V27.4585L54.4355 15.4648L88.1807 27.4585V32.8795Z" fill="#005E51"/>
<path id="Vector_3" fill-rule="evenodd" clip-rule="evenodd" d="M33.4602 55.2404C34.3411 55.2404 34.6121 54.0207 33.799 53.6819C33.3924 53.4786 32.8503 53.4109 32.376 53.4109C31.9017 53.4109 31.4273 53.4786 30.953 53.6819C29.8688 51.7846 27.6327 50.7682 25.4643 51.3103C25.0578 51.4458 24.6512 51.5813 24.2446 51.7846C22.5506 49.0064 19.5013 47.1768 15.9777 47.1768C12.5897 47.1091 9.67598 48.8031 7.91418 51.378C7.30433 51.1748 6.62672 51.0392 5.94911 51.0392C4.32283 51.0392 2.83208 51.7168 1.7479 52.801C0.867009 53.6819 1.47686 55.2404 2.76432 55.2404H33.4602Z" fill="black"/>
<path id="Vector_4" fill-rule="evenodd" clip-rule="evenodd" d="M33.4602 55.2404C34.3411 55.2404 34.6121 54.0207 33.799 53.6819C33.3924 53.4786 32.8503 53.4109 32.376 53.4109C31.9017 53.4109 31.4273 53.4786 30.953 53.6819C29.8688 51.7846 27.6327 50.7682 25.4643 51.3103C25.0578 51.4458 24.6512 51.5813 24.2446 51.7846C22.5506 49.0064 19.5013 47.1768 15.9777 47.1768C12.5897 47.1091 9.67598 48.8031 7.91418 51.378C7.30433 51.1748 6.62672 51.0392 5.94911 51.0392C4.32283 51.0392 2.83208 51.7168 1.7479 52.801C0.867009 53.6819 1.47686 55.2404 2.76432 55.2404H33.4602Z" fill="#005E51"/>
<path id="Vector_5" d="M21.1982 96.9958V32.9834L54.4351 20.951L87.6721 32.9834V96.9958H21.1982Z" fill="white" stroke="#1B2734" stroke-width="1.01642"/>
<path id="Vector_6" fill-rule="evenodd" clip-rule="evenodd" d="M58.6363 29.8302C58.6363 32.1341 56.739 34.0314 54.4351 34.0314C52.1312 34.0314 50.2339 32.1341 50.2339 29.8302C50.2339 27.5263 52.1312 25.629 54.4351 25.629C56.739 25.629 58.6363 27.5263 58.6363 29.8302Z" fill="#B9EDE6"/>
<path id="Vector_7" fill-rule="evenodd" clip-rule="evenodd" d="M65.5474 63.8456H70.9683V52.5972H65.5474V63.8456Z" fill="#B9EDE6"/>
<path id="Vector_8" fill-rule="evenodd" clip-rule="evenodd" d="M65.6152 50.0234H71.1039V38.775H65.6152V50.0234Z" fill="#DCDFE3"/>
<path id="Vector_9" fill-rule="evenodd" clip-rule="evenodd" d="M74.6958 84.8516H80.1844V52.5972H74.6958V84.8516Z" fill="#DCDFE3"/>
<path id="Vector_10" fill-rule="evenodd" clip-rule="evenodd" d="M74.6958 50.0234H80.1844V38.775H74.6958V50.0234Z" fill="#DCDFE3"/>
<path id="Vector_11" fill-rule="evenodd" clip-rule="evenodd" d="M28.6851 84.5128H34.1738V52.5972H28.6851V84.5128Z" fill="#DCDFE3"/>
<path id="Vector_12" fill-rule="evenodd" clip-rule="evenodd" d="M28.6851 50.0234H34.1738V38.775H28.6851V50.0234Z" fill="#DCDFE3"/>
<path id="Vector_13" fill-rule="evenodd" clip-rule="evenodd" d="M38.0371 63.8456H43.458V52.5972H38.0371V63.8456Z" fill="#DCDFE3"/>
<path id="Vector_14" fill-rule="evenodd" clip-rule="evenodd" d="M37.9019 50.0234H43.3905V38.775H37.9019V50.0234Z" fill="#B9EDE6"/>
<path id="Vector_15" fill-rule="evenodd" clip-rule="evenodd" d="M47.1172 63.8456H52.5381V52.5972H47.1172V63.8456Z" fill="#B9EDE6"/>
<path id="Vector_16" fill-rule="evenodd" clip-rule="evenodd" d="M47.1172 50.0234H52.5381V38.775H47.1172V50.0234Z" fill="#DCDFE3"/>
<path id="Vector_17" fill-rule="evenodd" clip-rule="evenodd" d="M56.3325 63.8456H61.7534V52.5972H56.3325V63.8456Z" fill="#DCDFE3"/>
<path id="Vector_18" fill-rule="evenodd" clip-rule="evenodd" d="M56.3325 50.0234H61.7534V38.775H56.3325V50.0234Z" fill="#DCDFE3"/>
<g id="Clip path group">
<mask id="mask0_1_3181" style="mask-type:luminance" maskUnits="userSpaceOnUse" x="40" y="72" width="28" height="25">
<g id="a">
<path id="Vector_19" d="M67.8862 72.1898H40.104V96.5839H67.8862V72.1898Z" fill="white"/>
</g>
</mask>
<g mask="url(#mask0_1_3181)">
<g id="Group">
<path id="Vector_20" fill-rule="evenodd" clip-rule="evenodd" d="M39.5771 98.1763H67.9269V71.8511H39.5771V98.1763Z" fill="#B9EDE6"/>
<path id="Vector_21" fill-rule="evenodd" clip-rule="evenodd" d="M43.1138 98.1754H64.3909V75.0537H43.1138V98.1754Z" fill="#005E51"/>
<path id="Vector_22" fill-rule="evenodd" clip-rule="evenodd" d="M53.3452 98.1754H54.7004V75.0537H53.3452V98.1754Z" fill="#005E51"/>
</g>
</g>
</g>
<path id="Vector_23" fill-rule="evenodd" clip-rule="evenodd" d="M98.5187 74.9002C98.3832 75.0357 98.3154 75.1713 98.1799 75.3745C98.0444 75.3068 97.9088 75.3068 97.8411 75.4423C96.6891 76.7298 95.4694 77.9495 94.453 79.2369C94.453 77.8139 94.3175 76.4587 94.0465 75.0357C93.9787 74.6292 93.3688 74.8325 93.4366 75.239C93.7754 76.8653 93.8432 78.4916 93.7754 80.1178C93.3688 80.7955 93.03 81.5408 92.8268 82.2862C92.759 82.4895 92.6235 82.7605 92.5557 82.9638C92.4879 82.6928 92.3524 82.4895 92.2847 82.2184C91.9459 81.4053 91.4715 80.7277 90.9294 80.0501C90.1163 78.8981 89.1676 77.814 88.6933 76.4587C88.3545 75.239 88.2867 73.9516 88.3545 72.6641C88.4223 72.2575 87.7446 72.2575 87.7446 72.6641C87.6769 73.6805 87.6769 74.6969 87.8802 75.7133C87.8802 75.7811 87.8802 75.7811 87.8802 75.8489C87.9479 76.1199 88.0157 76.391 88.0835 76.662C88.2867 77.3396 88.49 77.9495 88.7611 78.5593C88.3545 78.356 87.9479 78.2205 87.5414 78.1528C86.9315 78.0172 86.3894 77.814 85.9829 77.3396C85.5763 76.8653 85.2375 76.2554 84.8309 75.8489C83.95 74.968 82.7981 74.4936 81.5784 74.3581C81.1718 74.3581 81.1718 74.968 81.5784 74.968C82.7981 75.0357 83.95 75.6456 84.6954 76.5942C85.102 77.0686 85.373 77.6107 85.7796 78.0172C86.1861 78.356 86.6605 78.5593 87.2026 78.6949C87.7446 78.8304 88.2867 78.9659 88.6933 79.3047C89.2354 79.7113 89.5064 80.3889 89.8452 80.931C90.1163 81.3375 90.3873 81.8119 90.6584 82.2184C90.9294 82.8961 91.1327 83.6414 91.336 84.3868C91.336 84.4546 91.336 84.5223 91.4038 84.5901V96.5838H94.1142V84.319C94.182 84.1158 94.182 83.9802 94.2497 83.777C94.2497 83.777 94.3175 83.7092 94.3175 83.6414C94.6563 82.0829 95.4017 80.7277 96.2148 79.3725C97.0957 77.9495 98.1121 76.5942 99.0608 75.1713C99.3318 74.9002 98.7897 74.5614 98.5187 74.9002Z" fill="#627282"/>
<path id="Vector_24" fill-rule="evenodd" clip-rule="evenodd" d="M105.274 67.096C104.326 65.4697 103.309 63.8435 102.293 62.2172C101.412 60.862 100.463 59.9811 98.9722 59.71C98.2269 59.5745 97.4137 59.5067 96.6683 59.1679C96.0585 58.8291 95.5842 58.287 95.0421 57.8127C94.0257 56.7285 93.077 55.8476 91.654 55.7121C90.0277 55.5766 88.3337 56.0509 86.8429 56.6608C85.2844 57.2706 83.7937 58.0837 82.5062 59.1679C81.9641 59.5745 81.4898 60.1166 81.151 60.7264C80.7444 61.5396 80.7444 62.4205 80.5411 63.2336C80.1346 64.9276 78.9149 66.1473 78.1017 67.5703C77.3564 68.8578 76.7465 70.5518 77.0853 72.1103C77.4241 73.4656 78.3728 74.3465 79.5247 74.8208C81.0832 75.4307 82.7095 75.0918 84.268 74.8208C85.1489 74.6853 86.0298 74.5498 86.9107 74.6853C87.5206 75.6339 88.6047 75.905 89.6212 76.0405C91.383 76.2438 93.077 76.4471 94.771 76.7859C97.8881 77.3957 101.48 77.8023 104.122 75.4984C105.206 74.5498 106.087 73.2623 106.291 71.7038C106.629 70.0097 106.02 68.4512 105.274 67.096Z" fill="#005E51"/>
</g>
</svg>
