<svg width="33" height="30" viewBox="0 0 33 30" fill="none" xmlns="http://www.w3.org/2000/svg">
<g id="logo-plain-branded.svg" clip-path="url(#clip0_1_3051)">
<g id="Group">
<path id="Vector" d="M17.5541 24.3C18.3083 22.4503 20.431 19.8621 22.5951 18.5265L27.3879 26.4569L22.4783 30.0238L17.5531 24.3H17.5541ZM10.4741 30.0155L3.71584 25.6686C8.83239 16.1048 18.3931 9.29481 29.6296 8.0255L31.5114 13.8238C22.2496 15.6486 14.52 21.7614 10.4731 30.0155H10.4741ZM11.9493 10.3314L12.8038 0.177917H18.8741L19.6458 9.35999C16.1627 10.5548 14.1145 11.5086 11.7672 12.9517C10.0345 14.0141 8.45894 15.2576 7.04894 16.6831L0.174805 13.7814L2.04825 7.99964L11.9493 10.3314Z" fill="#00C3A5"/>
</g>
</g>
<defs>
<clipPath id="clip0_1_3051">
<rect width="32.069" height="30" fill="white" transform="translate(-0.00439453)"/>
</clipPath>
</defs>
</svg>
