<svg width="102" height="105" viewBox="0 0 102 105" fill="none" xmlns="http://www.w3.org/2000/svg">
<g id="patient.svg">
<path id="Vector" d="M51.1665 97.504C75.467 97.504 95.1665 77.8046 95.1665 53.504C95.1665 29.2035 75.467 9.50403 51.1665 9.50403C26.866 9.50403 7.1665 29.2035 7.1665 53.504C7.1665 77.8046 26.866 97.504 51.1665 97.504Z" fill="#E0F7F4"/>
<path id="Vector_2" d="M87.5986 73.2484C85.8354 68.5455 81.8182 57.5722 79.1399 50.2892C77.4748 45.7169 74.4045 41.7978 70.3549 39.0545C67.9384 37.4216 65.2601 36.2459 62.4186 35.6254L57.4877 34.515L44.7179 35.2008L38.9047 37.2583C32.9281 39.3811 28.062 43.8227 25.4819 49.6035L16.2396 70.08C13.6922 75.7304 15.9783 82.4578 21.5629 85.1361C23.6857 86.148 26.2331 86.5399 29.1724 85.593C30.0541 85.1686 33.2874 83.5353 33.3853 84.156C33.7119 86.1812 32.177 96.7254 31.6544 98.7174C31.6218 98.8155 31.5891 98.9461 31.5891 99.0443C31.9483 99.2074 32.3076 99.338 32.7321 99.403C37.7616 100.285 42.8563 100.938 47.9511 101.363C53.9605 101.853 60.1329 102.049 66.1096 101.199C68.8197 100.808 71.6287 100.187 74.0783 98.8805C73.1307 97.5742 72.5431 90.0671 72.2494 88.467C71.9225 86.7037 71.6287 84.6786 71.8575 82.8822C71.8575 82.8497 73.6864 83.8623 73.882 83.9604C75.1558 84.6461 76.5272 84.8092 77.9642 84.8092C79.0092 84.7767 80.0543 84.6786 81.0994 84.4498C83.3858 83.9272 85.5085 82.7847 86.8473 80.8252C88.3174 78.5712 88.5456 75.7629 87.5986 73.2484Z" fill="#00C3A5"/>
<path id="Vector_3" d="M48.1465 31.7708C49.7794 31.9014 51.4124 32.0321 53.0124 31.9667C56.4089 31.8361 59.7729 30.791 63.1044 31.3136C63.4631 31.3789 63.8225 31.4442 64.1163 31.6728C64.672 32.13 64.6063 33.0444 64.1819 33.6323C63.7575 34.2202 63.0712 34.5141 62.418 34.808C58.9565 36.245 55.2331 37.1921 51.4777 37.0941C47.0361 36.9962 42.7578 35.3959 38.5775 33.8609C35.3443 32.6525 36.716 30.8563 39.5899 31.0849C42.4312 31.2809 45.2725 31.5421 48.1465 31.7708Z" fill="#FFD968"/>
<path id="Vector_4" d="M40.635 31.4444C40.9616 32.9467 42.4965 33.8285 43.9335 34.3837C46.4155 35.3308 49.0935 35.8533 51.7389 35.886C53.7309 35.9186 55.9517 35.5594 57.2255 34.0244C58.695 32.2608 58.3031 29.4522 56.8336 27.7213C55.3641 25.9904 53.0777 25.1086 50.8245 24.7167C48.6363 24.3575 45.6317 24.1615 43.8028 25.6638C42.3332 26.8395 40.2431 29.4849 40.635 31.4444Z" fill="#1B2734"/>
<path id="Vector_5" d="M45.599 29.3868C42.3331 26.219 39.6224 22.3653 38.5447 17.9563C37.467 13.5474 38.2835 8.55059 41.3534 5.18678C45.2724 0.908458 52.1309 0.222657 57.4212 2.6394C58.4663 3.09662 59.4789 3.68448 60.2627 4.50091C61.079 5.35004 61.6347 6.36249 62.0916 7.44019C63.7898 11.4246 64.2142 15.9315 63.2998 20.1445C62.6798 22.9858 60.6871 25.5984 59.0545 27.9826C58.4995 28.799 57.8788 29.6155 57.0293 30.0727C56.213 30.4972 55.2986 30.5626 54.3841 30.5953C53.0778 30.6606 51.7715 30.7259 50.4978 30.5953C48.8322 30.3993 46.7747 30.5299 45.599 29.3868Z" fill="#1B2734"/>
<path id="Vector_6" d="M61.602 17.6303C61.602 9.95557 56.9642 3.75043 51.2816 3.75043C45.5664 3.75043 40.9614 9.95557 40.9614 17.6303C40.9614 22.3658 42.725 26.5788 45.4357 29.0608C45.403 29.0608 45.3377 29.0935 45.3051 29.0935C45.2724 31.4123 45.2724 33.6984 45.2398 36.0172C45.2398 36.2131 45.2398 36.4091 45.3377 36.5397C45.4357 36.703 45.6317 36.7356 45.7949 36.801C47.7218 37.3235 49.714 37.4868 51.7063 37.6501C52.8164 37.748 53.8615 38.3033 54.9065 37.8787C55.9516 37.4541 56.9317 36.8336 58.0418 36.7356C56.7354 34.7108 56.6704 32.0981 56.5073 29.5834C59.5444 27.1666 61.602 22.725 61.602 17.6303Z" fill="#F4C0AA"/>
<path id="Vector_7" d="M49.7793 10.2173C48.4077 12.3728 46.2196 13.8751 44.5213 15.7693C42.8231 17.6635 41.5167 20.3415 42.4312 22.7255C40.243 19.721 40.0471 15.704 40.537 12.0135C40.7656 10.1846 41.1575 8.35574 42.1699 6.82081C43.4436 4.89392 45.5337 3.62027 47.7545 2.96709C53.3389 1.26884 51.5431 7.47399 49.7793 10.2173Z" fill="#1B2734"/>
<path id="Vector_8" d="M52.8174 9.72688C54.2219 11.8497 56.4427 13.3193 58.1735 15.1809C59.9049 17.0424 61.2437 19.7204 60.3618 22.1045C62.5175 19.0672 62.615 15.0176 62.0925 11.3598C61.8312 9.56362 61.4068 7.70204 60.3943 6.19974C59.0879 4.27292 56.9653 3.06451 54.7445 2.41134C49.1272 0.843723 51.0214 7.04887 52.8174 9.72688Z" fill="#1B2734"/>
<path id="Vector_9" d="M45.2072 14.8859C45.9584 14.494 46.8728 14.4614 47.428 14.7553C47.4607 14.7553 47.5586 14.8206 47.5913 14.8206C47.7546 14.9512 47.6892 15.1145 47.3954 15.2125C47.1341 15.3105 46.7748 15.2778 46.4809 15.2778C45.991 15.3431 45.6318 15.5064 45.2072 15.6697C44.9133 15.8003 44.5867 15.833 44.5214 15.6044C44.4561 15.3431 44.8806 15.0492 45.2072 14.8859Z" fill="#1B2734"/>
<path id="Vector_10" d="M54.7445 14.364C55.5608 14.2008 56.4753 14.4947 56.8672 14.9519C56.9003 14.9846 56.9653 15.0499 56.9978 15.0499C57.0959 15.2132 56.9978 15.3438 56.6715 15.3438C56.4103 15.3438 56.0834 15.2132 55.7896 15.1152C55.2996 15.0172 54.9076 15.0825 54.4832 15.0825C54.157 15.1152 53.8301 15.0499 53.8626 14.7886C53.8626 14.5927 54.3526 14.4294 54.7445 14.364Z" fill="#1B2734"/>
<path id="Vector_11" d="M42.7727 25.7195L43.2901 26.605C41.5537 26.7753 40.2838 28.6932 40.386 30.3274C40.386 30.9402 40.4882 31.5189 40.6925 32.0977C40.1817 30.9742 39.9094 29.7145 40.2157 28.4548C40.5562 27.1611 41.3769 25.9918 42.7727 25.7195Z" fill="#1B2734"/>
<path id="Vector_12" d="M62.092 18.0546C62.4839 17.826 63.0064 17.7933 63.3658 18.0219C63.9208 18.3485 64.019 19.0997 63.9533 19.7529C63.8883 20.5367 63.6271 21.2878 63.137 21.9083C62.647 22.5288 61.9288 22.986 61.145 23.0187C61.0469 23.0187 60.9162 23.0187 60.8837 22.9534C60.8506 22.8881 60.8506 22.8228 60.8506 22.7575C60.9487 21.8103 61.0469 20.8633 61.145 19.9161C61.2425 19.3283 61.3406 18.2179 62.092 18.0546Z" fill="#F4C0AA"/>
<path id="Vector_13" d="M62.5815 24.2595C62.4509 24.2595 62.3534 24.2595 62.2227 24.1941C61.5364 23.9982 61.1777 23.3123 61.3408 22.6265C61.5364 21.9407 62.2227 21.5814 62.9084 21.7447C63.2347 21.8427 63.496 22.0387 63.6597 22.3653C63.8229 22.6591 63.8554 23.0184 63.7572 23.345C63.6266 23.9002 63.1372 24.2595 62.5815 24.2595ZM61.9615 22.7898C61.8633 23.1164 62.059 23.4756 62.4184 23.5736C62.7453 23.6716 63.104 23.4756 63.2022 23.1164C63.2347 22.9531 63.2347 22.7898 63.1372 22.6265C63.0391 22.4632 62.9084 22.3653 62.7453 22.3326C62.5815 22.2999 62.4184 22.2999 62.2552 22.3979C62.1246 22.4959 61.994 22.6265 61.9615 22.7898Z" fill="#FFD968"/>
<path id="Vector_14" d="M41.5262 20.2107C41.6894 21.1578 41.7875 22.1049 41.9507 23.0193C41.9507 23.0846 41.9507 23.1827 41.9181 23.2153C41.8854 23.3133 41.7548 23.3133 41.6568 23.3133C40.873 23.3133 40.1545 22.8887 39.632 22.3008C39.1094 21.713 38.8155 20.9619 38.7175 20.1781C38.6195 19.5575 38.6848 18.7737 39.2401 18.4145C39.5993 18.1532 40.1218 18.1858 40.5137 18.3818C41.2649 18.5451 41.3956 19.6555 41.5262 20.2107Z" fill="#F4C0AA"/>
<path id="Vector_15" d="M40.0152 24.8147C39.4927 24.8147 39.0027 24.4881 38.8068 23.9656C38.5782 23.3124 38.9374 22.5939 39.5906 22.3654C39.9172 22.2673 40.2438 22.2673 40.5704 22.4307C40.8643 22.5939 41.0929 22.8226 41.2235 23.1492C41.3215 23.4757 41.3215 23.8023 41.1582 24.1289C40.995 24.4228 40.7663 24.6515 40.4397 24.7821C40.3091 24.7821 40.1458 24.8147 40.0152 24.8147ZM40.0152 22.8879C39.9499 22.8879 39.8846 22.8879 39.8192 22.9205C39.4927 23.0512 39.2967 23.4104 39.4273 23.737C39.4927 23.9003 39.5906 24.0309 39.7539 24.0962C39.9172 24.1615 40.0805 24.1942 40.2438 24.1289C40.4071 24.0636 40.5377 23.9656 40.6031 23.8023C40.6684 23.639 40.701 23.4757 40.6357 23.3124C40.5704 23.1492 40.4724 23.0185 40.3091 22.9532C40.2112 22.9205 40.1131 22.8879 40.0152 22.8879Z" fill="#FFD968"/>
<path id="Vector_16" d="M45.1851 29.0906C47.7548 31.0403 51.0727 32.5506 56.0927 29.8613" stroke="#C37833" stroke-width="0.873529"/>
<path id="Vector_17" d="M56.2783 30.9215C56.8659 30.8235 57.2578 30.3009 57.1928 29.7131C57.0947 29.1252 56.5721 28.7333 55.9846 28.7986C55.9189 28.7986 55.8539 28.8313 55.7883 28.8639L52.3593 25.3042L51.7061 25.9247L55.1351 29.5171C55.0701 29.6804 55.037 29.8764 55.0701 30.0723C55.1351 30.5949 55.6902 31.0194 56.2783 30.9215Z" fill="white"/>
<path id="Vector_18" d="M52.1569 25.4586L51.8975 25.7069L54.8773 28.8224L55.1366 28.5741L52.1569 25.4586Z" fill="#EA5A60"/>
<path id="Vector_19" d="M56.1152 30.4975C56.4581 30.4975 56.7359 30.2197 56.7359 29.877C56.7359 29.5343 56.4581 29.2564 56.1152 29.2564C55.7724 29.2564 55.4946 29.5343 55.4946 29.877C55.4946 30.2197 55.7724 30.4975 56.1152 30.4975Z" fill="#DCDFE3"/>
<path id="Vector_20" d="M49.8125 27.1661C49.7145 27.1661 49.6165 27.1335 49.5512 27.0682C49.3879 26.9376 49.3879 26.6763 49.5185 26.513C50.4656 25.4353 51.9351 24.9127 53.3721 25.076C53.6009 25.1087 53.7315 25.3046 53.699 25.5006C53.6659 25.7292 53.4703 25.8598 53.274 25.8272C52.1314 25.6638 50.8902 26.1211 50.1064 27.0029C50.0411 27.1335 49.9431 27.1661 49.8125 27.1661Z" fill="#C37833"/>
<path id="Vector_21" d="M46.8071 19.0338C46.4152 19.393 45.8601 19.3604 45.4028 19.0991C45.3048 19.0338 45.2069 18.9685 45.1416 18.8379C45.0436 18.5766 45.2069 18.25 45.4028 18.152C45.5988 18.0541 45.86 18.0214 46.0886 17.9561C46.3499 17.8581 46.9051 17.4009 47.1337 17.8254C47.3623 18.152 47.0357 18.8052 46.8071 19.0338Z" fill="#CE8768"/>
<path id="Vector_22" d="M54.8735 18.9685C55.2654 19.3277 55.821 19.2951 56.2779 19.0011C56.3761 18.9358 56.4742 18.8705 56.5392 18.7399C56.6373 18.4786 56.4742 18.152 56.2454 18.0541C56.0167 17.9561 55.7879 17.9561 55.5598 17.8581C55.2654 17.7601 54.7428 17.3356 54.5147 17.7275C54.2859 18.0867 54.6453 18.7399 54.8735 18.9685Z" fill="#CE8768"/>
<path id="Vector_23" d="M46.4486 18.2182C47.4283 18.2508 47.3957 16.4873 46.3832 16.4546C45.5015 16.422 45.4688 18.1855 46.4486 18.2182Z" fill="#1B2734"/>
<path id="Vector_24" d="M55.2343 18.2182C56.2137 18.2508 56.1812 16.4873 55.1686 16.4546C54.3198 16.422 54.2542 18.1855 55.2343 18.2182Z" fill="#1B2734"/>
<path id="Vector_25" d="M36.6507 31.804C36.6507 31.804 51.3144 40.132 63.9208 31.804C65.2597 32.1306 67.8074 37.8785 67.1542 42.6467C67.3173 43.1366 47.7546 51.2033 35.9649 42.5814C35.6383 42.3201 35.4096 41.9282 35.377 41.5037C35.279 40.0993 34.7892 36.4089 36.6507 31.804Z" fill="white"/>
<path id="Vector_26" d="M36.455 42.908C35.7365 47.4149 33.6464 61.2622 34.2669 69.5903C34.3649 69.6878 45.7954 69.5903 45.7954 69.5903C45.7954 69.5903 45.8934 52.8691 47.6243 46.4351C43.7379 46.1738 39.8188 45.1941 36.455 42.908Z" fill="white"/>
<path id="Vector_27" d="M41.2881 66.16L46.2196 70.5691C46.2196 70.5691 36.8139 82.62 29.8576 85.3633C29.3677 84.8408 25.1548 73.2799 25.1548 73.2799C25.1548 73.2799 33.8093 67.4995 41.2881 66.16Z" fill="#00C3A5"/>
<path id="Vector_28" d="M43.3457 34.383C39.3287 33.3052 36.6507 31.7703 36.6507 31.7703C34.7892 36.3751 35.279 40.0656 35.377 41.4699C35.4096 41.8945 35.6056 42.2864 35.9649 42.5477C37.7938 43.8866 39.7859 44.8011 41.8761 45.4542C41.4515 42.1231 41.8107 38.6939 42.9538 35.5587C43.1498 35.0035 43.313 34.6769 43.3457 34.383Z" fill="#FFD968"/>
<path id="Vector_29" d="M58.63 45.5214C58.63 45.4887 58.63 45.456 58.63 45.4234C59.0219 41.7983 58.7281 38.1079 57.683 34.6461C55.3641 35.2992 53.0783 35.5278 50.89 35.5278C50.89 35.5605 50.89 35.5605 50.89 35.5931C50.7921 36.2137 51.2166 37.2914 51.3146 37.9446C51.4126 38.5651 51.6738 44.313 51.4779 46.5011C54.0253 46.3379 56.4748 45.9786 58.63 45.5214Z" fill="#FFD968"/>
<path id="Vector_30" d="M63.921 31.7703C63.5616 32.0316 63.1697 32.2601 62.811 32.4561C62.876 32.7501 63.0391 33.0766 63.2354 33.6318C63.6273 34.7422 63.7579 35.9506 63.8885 37.0936C64.1498 39.3144 64.4436 41.5352 64.7705 43.7234C66.305 43.1681 67.1869 42.6783 67.1544 42.5803C67.7751 37.8448 65.2599 32.1295 63.921 31.7703Z" fill="#FFD968"/>
<path id="Vector_31" d="M47.6572 46.4351C43.7382 46.1738 39.8192 45.1614 36.4553 42.908C36.292 43.9857 36.0308 45.6187 35.7368 47.5782C36.39 48.1007 37.2065 48.4275 37.925 48.6888C40.1784 49.5376 42.5298 49.8313 44.8812 50.0926C45.5344 50.1582 46.2203 50.2232 46.9061 50.2232C47.1347 48.7863 47.3633 47.4802 47.6572 46.4351Z" fill="#FFD968"/>
<path id="Vector_32" d="M46.2195 57.67C42.9537 57.5393 39.7205 57.2131 36.52 56.658C35.8668 56.5274 35.2789 56.4618 34.7237 56.1024C34.4624 58.9113 34.2339 61.7853 34.1685 64.463C35.9647 64.8549 37.761 65.1493 39.5572 65.1818C41.7127 65.2468 43.9334 64.9205 45.893 64.0386C45.991 62.1447 46.0889 59.9239 46.2195 57.67Z" fill="#FFD968"/>
<path id="Vector_33" d="M46.7426 60.7394C47.3957 59.9556 48.1469 59.1718 49.0613 58.6818C50.0738 58.2248 51.0535 58.0286 52.1969 57.8979C53.7313 57.7023 55.3321 57.5717 56.8016 57.506C57.0628 57.506 57.3241 57.506 57.4547 57.6367C57.6504 57.8329 57.5854 58.2249 57.3891 58.4205C57.1935 58.6168 56.9322 58.7474 56.6709 58.8124C55.2015 59.2699 53.7313 59.7925 52.3275 60.2494C54.8421 61.0988 57.781 59.6618 60.3937 60.315C60.655 60.38 60.9162 60.4456 61.0469 60.7069C61.2431 60.9682 61.1125 61.3601 60.8512 61.6864C60.59 61.9476 60.3287 61.817 59.9693 61.8826C58.1079 62.4702 56.1809 62.9277 54.2539 63.1233C53.9926 63.189 53.5357 63.5809 53.6007 63.8421C55.3971 63.7765 57.1935 63.7765 58.9899 63.7115C59.1855 63.7115 59.4468 63.7115 59.643 63.8421C59.8387 64.0378 59.7737 64.4297 59.5774 64.6259C59.3818 64.8216 59.0549 64.8872 58.6955 64.9522C57.0303 65.2791 55.3646 65.671 53.6988 66.0629C54.9727 66.0629 56.1484 66.0629 57.3566 66.0629C57.7485 66.0629 58.3692 66.1936 58.4342 66.5855C58.4342 66.9117 58.1079 67.108 57.8466 67.2386C56.1159 67.8918 54.0582 67.4999 52.3275 68.2181C51.6743 68.4794 50.9882 68.9369 50.2697 69.2632C49.5512 69.5901 48.6041 69.5244 47.8203 69.5901C47.0365 69.7207 46.6773 69.982 46.22 70.7001C45.3382 69.1982 40.1455 68.3812 41.2885 66.2911C41.2885 66.2261 43.4767 64.5278 44.0972 63.7765C44.881 62.6664 45.8281 61.6864 46.7426 60.7394Z" fill="#F4C0AA"/>
<path id="Vector_34" d="M59.9355 62.5033C60.3606 63.3852 62.1894 65.4754 62.1894 65.541C62.9076 67.7943 57.6497 67.598 56.5065 68.9044C56.1802 68.1206 55.919 67.7943 55.1677 67.5005C54.3839 67.2718 53.4694 67.1736 52.8162 66.7167C52.1631 66.2592 51.608 65.6717 50.9874 65.3123C49.4197 64.2672 47.3296 64.2672 45.762 63.2871C45.5333 63.124 45.2394 62.8627 45.3048 62.5364C45.4354 62.177 46.0559 62.1445 46.4478 62.242C47.6235 62.4708 48.7992 62.6996 50.0402 62.9608C48.4726 62.242 46.9377 61.5563 45.3701 60.9032C45.0435 60.7725 44.7495 60.6419 44.5863 60.4131C44.4229 60.185 44.4229 59.7931 44.6842 59.6293C44.9128 59.5318 45.1741 59.5968 45.3701 59.6293C47.1336 60.0544 48.8972 60.3806 50.6281 60.805C50.7587 60.5769 50.3668 60.0869 50.1055 59.9887C48.244 59.4337 46.4478 58.5842 44.7169 57.6698C44.3903 57.5392 44.129 57.6048 43.9004 57.311C43.7044 56.9516 43.6391 56.5272 43.9004 56.331C44.0963 56.1022 44.3576 56.1022 44.6189 56.0697C47.2969 55.9391 49.877 57.8986 52.5225 57.5723C51.2486 56.8535 49.9096 56.0697 48.5706 55.3184C48.3093 55.1877 48.0807 55.0246 47.9174 54.7958C47.7541 54.5677 47.7541 54.1758 48.0154 54.012C48.1787 53.9145 48.44 53.947 48.7012 54.012C50.1382 54.3714 51.673 54.7958 53.1425 55.2859C54.2207 55.6453 55.1677 56.0047 56.0496 56.6579C56.8659 57.3435 57.421 58.258 57.9435 59.1399C58.6292 60.25 59.348 61.3932 59.9355 62.5033Z" fill="#F4C0AA"/>
<path id="Vector_35" d="M55.1029 67.8583C55.0704 67.8583 55.0704 67.8583 55.0379 67.8583C53.6009 67.5321 52.2289 66.8789 51.0859 65.9319L50.9227 65.8013C50.694 65.605 50.4981 65.4419 50.2695 65.3113C50.0082 65.1806 49.7143 65.0825 49.4203 64.9844L46.3831 64.0699C46.0565 63.9724 45.6646 63.8418 45.4033 63.5474C45.0767 63.2211 44.9788 62.6004 45.338 62.241C45.6973 61.8823 46.2198 61.9798 46.481 62.0129L47.2322 62.1435C46.873 61.9798 46.4811 61.8166 46.1218 61.686C45.9585 61.621 45.8605 61.4572 45.9259 61.2941C45.9912 61.131 46.1545 61.0328 46.3178 61.0985C47.3301 61.4572 48.2773 61.9473 49.1917 62.5023C49.3224 62.5679 49.355 62.7311 49.3224 62.8617C49.257 62.9923 49.1264 63.0905 48.9631 63.058L46.3831 62.6004C46.1545 62.5679 45.8932 62.5354 45.7952 62.6329C45.6973 62.7311 45.7299 62.9598 45.8605 63.0905C46.0239 63.2861 46.3178 63.3517 46.579 63.4499L49.6163 64.3643C49.9429 64.4618 50.2695 64.56 50.5634 64.7231C50.8573 64.8869 51.0859 65.0825 51.3146 65.2788L51.4778 65.4094C52.5559 66.2907 53.8291 66.9114 55.1685 67.2051C55.3317 67.2383 55.4298 67.4014 55.3967 67.5646C55.3642 67.7608 55.2335 67.8583 55.1029 67.8583Z" fill="#C37833"/>
<g id="Group" filter="url(#filter0_d_1_3074)">
<path id="Vector_36" d="M50.4335 61.0016C50.1396 61.0016 49.8456 60.9034 49.6171 60.8053L49.5191 60.7728C48.8006 60.479 48.0495 60.3484 47.2983 60.3484C47.135 60.3484 47.0044 60.2178 47.0044 60.0215C47.0044 59.8584 47.135 59.7277 47.331 59.7277C48.1148 59.7277 48.8659 59.8909 49.6171 60.1521C49.1272 59.7934 48.572 59.5646 47.9841 59.499C47.8208 59.4665 47.6902 59.3358 47.7229 59.1402C47.7555 58.9764 47.9188 58.8458 48.0821 58.8789C49.0292 59.0096 49.9437 59.4665 50.5968 60.1853C50.6621 60.2828 50.8907 60.479 50.8254 60.7728C50.7928 60.9034 50.6621 61.0341 50.5315 61.0341C50.4662 61.0016 50.4335 61.0016 50.4335 61.0016Z" fill="#C37833"/>
</g>
<path id="Vector_37" d="M25.2529 72.1051C25.1549 72.1051 25.0569 72.0726 24.9916 72.0069C24.8283 71.8438 24.8283 71.615 24.959 71.4519C26.102 70.2437 27.8003 69.7211 29.1719 69.2961L40.9944 65.6715C41.1903 65.6058 41.419 65.7365 41.4843 65.9327C41.5496 66.1284 41.4189 66.3571 41.223 66.4221L29.4006 70.0474C28.0615 70.4718 26.5266 70.9294 25.5141 71.9744C25.4488 72.0726 25.3509 72.1051 25.2529 72.1051Z" fill="#005E51"/>
<path id="Vector_38" d="M78.8453 69.8836C78.7472 69.8836 78.6497 69.8511 78.5841 69.7855C76.5921 67.7935 73.4893 67.3691 70.746 67.2384C70.4197 67.2384 70.1253 67.2053 69.7991 67.2053C67.1539 67.1078 64.4105 66.9772 62.0591 65.6708C61.8628 65.5727 61.7978 65.3439 61.8953 65.1483C61.9935 64.952 62.2222 64.887 62.4179 64.9845C64.6062 66.1934 67.2514 66.2908 69.7991 66.4214C70.1253 66.4214 70.4522 66.4546 70.746 66.4546C73.6525 66.5853 76.9183 67.0422 79.1066 69.2305C79.2698 69.3936 79.2698 69.6224 79.1066 69.7855C79.0416 69.8511 78.9435 69.8836 78.8453 69.8836Z" fill="#005E51"/>
<path id="Vector_39" d="M46.1694 70.6205C44.6323 72.7342 40.8971 77.5609 38.2532 79.9589C35.6093 82.3569 31.0798 84.7242 29.1455 85.6081" stroke="#005E51" stroke-width="0.873529" stroke-linecap="round"/>
<path id="Vector_40" d="M71.0403 67.0422C70.9422 67.0422 70.844 67.0097 70.7459 66.9441C70.5827 66.8134 70.4846 66.5197 70.6152 66.2909C70.6152 66.2584 70.6484 66.2584 70.6484 66.2259C70.0602 64.2664 69.5377 62.2412 69.0808 60.2167C69.0476 60.0204 69.1783 59.7923 69.3745 59.7592C69.5702 59.7267 69.7989 59.8573 69.8314 60.0536C70.2565 62.0781 70.8115 64.1358 71.3991 66.1278V66.1603C71.4322 66.324 71.5628 66.6503 71.2684 66.9116C71.2684 67.0097 71.1378 67.0422 71.0403 67.0422Z" fill="#005E51"/>
<path id="Vector_41" d="M31.6219 69.2304C31.3932 69.2304 31.23 69.0341 31.23 68.806L31.4259 64.6907C31.4259 64.4619 31.6219 64.2988 31.8178 64.3313C32.0464 64.3313 32.2097 64.5275 32.177 64.7232L31.9811 68.8385C31.9811 69.0673 31.8178 69.2304 31.6219 69.2304Z" fill="#005E51"/>
<path id="Vector_42" d="M55.4245 4.75694L53.3031 9.69736C52.5696 11.2833 53.6918 13.1125 55.4003 13.1125C57.059 13.1125 58.1818 11.3745 57.5414 9.80371C56.5422 7.34619 55.1932 4.52384 55.4245 4.75694Z" fill="#DCDFE3"/>
<path id="Vector_43" d="M60.0729 14.056L57.9515 18.9964C57.2181 20.5824 58.3402 22.4116 60.0487 22.4116C61.7074 22.4116 62.8303 20.6736 62.1898 19.1028C61.1906 16.6453 59.8416 13.8229 60.0729 14.056Z" fill="#DCDFE3"/>
<path id="Vector_44" d="M56.4692 69.0833C58.6467 71.6837 63.5859 77.361 65.9225 79.2672C68.259 81.1733 70.6878 82.4953 71.6101 82.9181" stroke="#005E51" stroke-width="0.873529" stroke-linecap="round"/>
<path id="Vector_45" d="M36.8804 31.8828C38.9611 33.0643 44.579 35.4379 50.8006 35.4802C57.0223 35.5225 62.2809 33.0996 64.1325 31.8829" stroke="#CE8768" stroke-width="0.873529" stroke-linecap="round"/>
<path id="Vector_46" d="M35.3901 42.0205C39.3973 45.1427 51.3553 49.6331 67.1291 42.6171" stroke="#CE8768" stroke-width="0.873529" stroke-linecap="round"/>
<path id="Vector_47" d="M48.6851 15.9379C49.5505 16.0753 51.1571 16.9135 50.6607 19.1669C50.0402 21.9836 48.5157 23.7928 51.7059 23.8615" stroke="#C37833" stroke-width="0.873529"/>
</g>
<defs>
<filter id="filter0_d_1_3074" x="44.675" y="58.8738" width="8.49136" height="6.81918" filterUnits="userSpaceOnUse" color-interpolation-filters="sRGB">
<feFlood flood-opacity="0" result="BackgroundImageFix"/>
<feColorMatrix in="SourceAlpha" type="matrix" values="0 0 0 0 0 0 0 0 0 0 0 0 0 0 0 0 0 0 127 0" result="hardAlpha"/>
<feOffset dy="2.32941"/>
<feGaussianBlur stdDeviation="1.16471"/>
<feComposite in2="hardAlpha" operator="out"/>
<feColorMatrix type="matrix" values="0 0 0 0 0 0 0 0 0 0 0 0 0 0 0 0 0 0 0.25 0"/>
<feBlend mode="normal" in2="BackgroundImageFix" result="effect1_dropShadow_1_3074"/>
<feBlend mode="normal" in="SourceGraphic" in2="effect1_dropShadow_1_3074" result="shape"/>
</filter>
</defs>
</svg>
